<?xml version="1.0" encoding="utf-8"?>
<!-- Generator: Adobe Illustrator 24.1.2, SVG Export Plug-In . SVG Version: 6.00 Build 0)  -->
<svg version="1.1" id="Vrstva_1" xmlns="http://www.w3.org/2000/svg" xmlns:xlink="http://www.w3.org/1999/xlink" x="0px" y="0px"
	 viewBox="0 0 106.6 86.7" style="enable-background:new 0 0 106.6 86.7;" xml:space="preserve">
<style type="text/css">
	.st0{fill:#2DAFE6;}
	.st1{fill:#FFFFFF;}
	.st2{fill:#BCCF00;}
	.st3{fill:#83D0F5;}
	.st4{fill:#65B32E;}
	.st5{fill:#004A70;}
</style>
<polygon class="st0" points="40.9,10.8 47.1,21.5 53.3,10.8 "/>
<polygon class="st5" points="40.9,10.8 34.6,21.5 47.1,21.5 "/>
<polygon class="st2" points="71.9,43.1 59.5,21.5 47.1,43.1 "/>
<polyline class="st3" points="59.5,43.1 65.7,32.3 71.9,43.1 "/>
<polygon class="st0" points="47.1,43.1 53.3,53.8 59.5,43.1 "/>
<polygon class="st0" points="40.9,32.3 47.1,43.1 53.3,32.3 "/>
<polygon class="st0" points="53.3,32.3 53.3,32.3 53.3,32.3 53.3,32.3 "/>
<polygon class="st4" points="47.1,43.1 47.1,43.1 47.1,43.1 "/>
<polygon class="st2" points="59.5,21.5 65.7,32.3 71.9,21.5 "/>
<polygon class="st3" points="40.9,32.3 53.3,32.3 59.5,21.5 53.3,10.8 "/>
<polygon class="st4" points="65.7,32.3 59.5,21.5 53.3,32.3 53.3,32.3 53.3,32.3 53.3,32.3 47.1,43.1 59.5,43.1 59.5,43.1 
	65.7,32.3 65.7,32.3 "/>
<g>
	<path class="st5" d="M10.8,64.6h3c1.3,0,2.3,0.2,3.1,0.7c0.9,0.6,1.3,1.4,1.3,2.5c0,1-0.5,1.8-1.4,2.2c1.2,0.4,1.9,1.4,1.9,2.6
		c0,1.3-0.8,2.4-2,2.9c-0.7,0.3-1.7,0.5-3,0.5h-2.8V64.6z M13.1,66.5v2.7h0.6c1.4,0,2.1-0.4,2.1-1.3c0-0.5-0.2-0.8-0.5-1
		c-0.3-0.2-0.9-0.3-1.8-0.3H13.1z M13.1,71.1V74h0.5c0.9,0,1.5-0.1,1.9-0.2c0.4-0.2,0.6-0.6,0.6-1.1c0-1-0.6-1.5-1.8-1.5H13.1z"/>
</g>
<rect x="24.2" y="64.6" class="st5" width="2.3" height="11.3"/>
<g>
	<path class="st5" d="M32.7,64.6h3.6c1.8,0,4.1,0.9,4.1,3.4c0,1.6-1,2.7-2.4,3.1l3.4,4.8h-2.9l-3.1-4.5H35v4.5h-2.3V64.6z M35,66.6
		v2.9h0.9c1.2,0,2-0.5,2-1.4c0-0.9-0.7-1.5-1.7-1.5H35z"/>
	<path class="st5" d="M46.6,75.9V64.6h3.3c1.5,0,2.9,0.4,4.2,1.3c1.2,0.8,2,2.4,2,4.3c0,2-0.8,3.6-2,4.4c-1.2,0.9-2.7,1.3-4.3,1.3
		H46.6z M48.9,66.6v7.4h0.3c3,0,4.4-1.2,4.4-3.6c0-2.5-1.4-3.8-4-3.8H48.9z"/>
	<path class="st5" d="M67.5,67.4c-0.8-0.7-1.6-1-2.3-1c-0.8,0-1.5,0.4-1.5,1.1c0,0.4,0.2,0.6,0.5,0.8c0.1,0.1,0.5,0.3,0.7,0.3
		c0.1,0,0.2,0.1,0.4,0.1l0.4,0.1c0.5,0.2,0.9,0.3,1.2,0.5c0.3,0.1,0.7,0.4,1.1,0.6c0.8,0.6,1.2,1.4,1.2,2.5c0,0.8-0.2,1.4-0.7,2
		c-0.9,1.1-2.2,1.5-3.6,1.5c-1.6,0-3.1-0.6-4.3-1.9l1.5-1.5c1,1,1.7,1.4,2.8,1.4c1,0,1.8-0.5,1.8-1.4c0-0.5-0.2-0.8-0.7-1.1
		c-0.2-0.1-0.5-0.3-0.6-0.3c-0.2-0.1-0.5-0.2-0.9-0.3c-0.4-0.1-0.7-0.3-0.9-0.4c-0.2-0.1-0.5-0.2-0.8-0.4c-0.9-0.5-1.3-1.2-1.4-2.6
		c0-1,0.4-1.8,1.1-2.3c0.7-0.5,1.6-0.8,2.6-0.8c1.3,0,2.6,0.5,3.7,1.3L67.5,67.4z"/>
	<path class="st5" d="M74.6,64.6h3.6c1.9,0,4.2,0.9,4.2,3.5c0,2.6-2.3,3.5-4.2,3.5h-1.3v4.3h-2.3V64.6z M76.9,66.6v3.1h0.9
		c1.4,0,2.1-0.5,2.1-1.5c0-1-0.7-1.6-1.8-1.6H76.9z"/>
</g>
<polygon class="st5" points="93.1,64.6 91,68.7 91,68.7 89,64.6 86.1,64.6 89.7,71.2 89.7,75.9 92,75.9 92,71.2 95.8,64.6 "/>
</svg>
