<?xml version="1.0" encoding="utf-8"?>
<!-- Generator: Adobe Illustrator 24.1.2, SVG Export Plug-In . SVG Version: 6.00 Build 0)  -->
<svg version="1.1" id="Vrstva_1" xmlns="http://www.w3.org/2000/svg" xmlns:xlink="http://www.w3.org/1999/xlink" x="0px" y="0px"
	 viewBox="0 0 158.1 64.1" style="enable-background:new 0 0 158.1 64.1;" xml:space="preserve">
<style type="text/css">
	.st0{fill:#2DAFE6;}
	.st1{fill:#FFFFFF;}
	.st2{fill:#BCCF00;}
	.st3{fill:#83D0F5;}
	.st4{fill:#65B32E;}
	.st5{fill:#004A70;}
</style>
<g>
	<g>
		<path class="st5" d="M60.7,26.7h3c1.3,0,2.3,0.2,3.1,0.7c0.9,0.6,1.3,1.4,1.3,2.5c0,1-0.5,1.8-1.4,2.2c1.2,0.4,1.9,1.4,1.9,2.6
			c0,1.3-0.8,2.4-2,2.9c-0.7,0.3-1.7,0.5-3,0.5h-2.8V26.7z M63,28.6v2.7h0.6c1.4,0,2.1-0.4,2.1-1.3c0-0.5-0.2-0.8-0.5-1
			c-0.3-0.2-0.9-0.3-1.8-0.3H63z M63,33.1V36h0.5c0.9,0,1.5-0.1,1.9-0.2c0.4-0.2,0.6-0.6,0.6-1.1c0-0.9-0.6-1.5-1.8-1.5H63z"/>
	</g>
	<rect x="74.1" y="26.7" class="st5" width="2.3" height="11.3"/>
	<g>
		<path class="st5" d="M82.6,26.7h3.6c1.8,0,4.1,0.9,4.1,3.4c0,1.6-1,2.7-2.4,3.1l3.4,4.7h-2.9l-3.1-4.5h-0.4v4.5h-2.3V26.7z
			 M84.9,28.6v2.9h0.9c1.2,0,2-0.5,2-1.4c0-0.9-0.7-1.5-1.7-1.5H84.9z"/>
		<path class="st5" d="M96.5,37.9V26.7h3.3c1.5,0,2.9,0.4,4.2,1.3c1.2,0.8,2,2.4,2,4.3c0,2-0.8,3.6-2,4.4c-1.2,0.9-2.7,1.3-4.3,1.3
			H96.5z M98.8,28.6V36h0.3c3,0,4.4-1.2,4.4-3.6c0-2.5-1.4-3.8-4-3.8H98.8z"/>
		<path class="st5" d="M117.4,29.4c-0.8-0.7-1.6-1-2.3-1c-0.8,0-1.5,0.4-1.5,1.1c0,0.4,0.2,0.6,0.5,0.8c0.1,0.1,0.5,0.3,0.7,0.3
			c0.1,0,0.2,0.1,0.4,0.1l0.4,0.1c0.5,0.2,0.9,0.3,1.2,0.5c0.3,0.1,0.7,0.4,1.1,0.6c0.8,0.6,1.2,1.4,1.2,2.5c0,0.8-0.2,1.4-0.7,2
			c-0.9,1.1-2.2,1.5-3.6,1.5c-1.6,0-3.1-0.6-4.3-1.9l1.5-1.5c1,1,1.7,1.4,2.8,1.4c1,0,1.8-0.5,1.8-1.4c0-0.5-0.2-0.8-0.7-1.1
			c-0.2-0.1-0.5-0.3-0.6-0.3c-0.2-0.1-0.5-0.2-0.9-0.3c-0.4-0.1-0.7-0.3-0.9-0.4c-0.2-0.1-0.5-0.2-0.8-0.4c-0.9-0.5-1.3-1.2-1.4-2.6
			c0-1,0.4-1.8,1.1-2.3c0.7-0.5,1.6-0.8,2.6-0.8c1.3,0,2.6,0.4,3.7,1.3L117.4,29.4z"/>
		<path class="st5" d="M124.5,26.7h3.6c1.9,0,4.2,0.9,4.2,3.5c0,2.6-2.3,3.5-4.2,3.5h-1.3v4.2h-2.3V26.7z M126.8,28.6v3.1h0.9
			c1.4,0,2.1-0.5,2.1-1.5c0-1-0.7-1.6-1.8-1.6H126.8z"/>
	</g>
	<polygon class="st5" points="143,26.7 140.8,30.7 140.8,30.7 138.9,26.7 136,26.7 139.6,33.2 139.6,37.9 141.9,37.9 141.9,33.3 
		145.6,26.7 	"/>
	<polygon class="st0" points="18.6,10.8 24.8,21.5 31,10.8 	"/>
	<polygon class="st5" points="18.6,10.8 12.4,21.5 24.8,21.5 	"/>
	<polygon class="st2" points="49.7,43 37.2,21.5 24.8,43 	"/>
	<polyline class="st3" points="37.2,43 43.4,32.3 49.7,43 	"/>
	<polygon class="st0" points="24.8,43 31,53.8 37.2,43 	"/>
	<polygon class="st0" points="18.6,32.3 24.8,43 31,32.3 	"/>
	<rect x="31" y="32.3" class="st0" width="0" height="0"/>
	<polygon class="st2" points="37.2,21.5 43.4,32.3 49.7,21.5 	"/>
	<polygon class="st3" points="18.6,32.3 31,32.3 37.2,21.5 31,10.8 	"/>
	<polygon class="st4" points="43.4,32.3 37.2,21.5 31,32.3 31,32.3 31,32.3 31,32.3 24.8,43 37.2,43 37.2,43 43.4,32.3 43.4,32.3 	
		"/>
</g>
</svg>
